<?xml version="1.0" encoding="utf-8" ?><svg xmlns="http://www.w3.org/2000/svg" xmlns:xlink="http://www.w3.org/1999/xlink" width="1000" height="1000" viewBox="0 0 1000 1000"><path fill="#96CE42" transform="scale(3.28947 1.82815)" d="M0 522.68C7.25395 512.308 14.373 501.282 21.4267 490.725L68.8963 419.498L248.718 149.975L279.218 104.018L289.613 88.4978C290.855 86.6513 294.068 81.0721 295.72 80.1712C296.714 80.1117 296.32 80.0298 297.212 80.4891C297.396 80.8588 297.645 81.2057 297.414 81.6101C294.304 87.0615 289.165 94.3163 285.787 99.3755L252.552 149.234L79.2649 409.122L25.5712 489.701L9.09643 514.404C6.58865 518.176 2.64351 524.49 0 527.903L0 522.68Z"/><path fill="#00FEFE" fill-opacity="0.98431373" transform="scale(3.28947 1.82815)" d="M9.26177 547C15.1153 537.696 22.5346 527.16 28.752 517.808L74.4316 449.372L199.538 261.848L267.822 159.285L294.928 118.568C297.205 115.141 299.533 111.765 301.859 108.371C302.933 106.805 302.921 105.413 304 104.058L304 108.953C303.164 110.439 302.109 112.851 301.283 114.106C297.327 120.111 293.239 126.09 289.252 132.076L270.695 159.994L209.938 251.093L12.8693 547L9.26177 547Z"/><path fill="#BF9F5C" transform="scale(3.28947 1.82815)" d="M304 14.4064L304 19.2569C303.186 20.4614 302.297 23.3395 300.535 25.9839L256.004 92.7749L86.451 347.069L41.4123 414.68C39.4753 417.557 30.014 432.249 28.2933 433.578C27.2511 433.711 27.6764 433.772 26.6842 433.291L26.4847 432.686C26.7341 430.931 35.7509 417.833 37.4803 415.229L57.3299 385.423L104.205 315.1L250.271 96.0179L283.536 46.1145C290.011 36.4416 298.759 24.32 304 14.4064Z"/><path fill="#096665" transform="scale(3.28947 1.82815)" d="M33.5327 547L211.635 279.854L252.883 217.912C259.66 207.718 266.407 197.452 273.246 187.297C273.931 186.281 274.862 184.957 275.987 184.463C276.979 184.563 276.592 184.445 277.499 185.085C277.609 185.686 277.663 186.304 277.291 186.864C266.808 202.626 256.21 218.372 245.726 234.162L211.463 285.507L82.7939 478.485L52.9788 523.107C47.7509 530.954 42.4144 539.271 37.0589 547L33.5327 547Z"/><path fill="#E82D25" transform="scale(3.28947 1.82815)" d="M76.3953 547L228.509 318.854L279.51 242.312L292.698 222.609C295.9 217.87 299.271 213.095 302.292 208.244C302.926 207.226 303.398 205.901 304 204.762L304 209.377C303.321 210.488 303.163 211.486 302.628 212.484C298.97 219.313 294.059 226.073 289.791 232.546L261.116 275.508L202.332 363.704L115.191 494.302L92.5331 528.324C88.5679 534.317 84.2409 541.182 80.1383 547L76.3953 547Z"/><path fill="#096665" transform="scale(3.28947 1.82815)" d="M296.421 0L300.076 0C288.896 17.6611 276.171 36.1129 264.512 53.5598L206.568 140.459L122.066 267.195C110.134 285.074 98.2566 302.999 86.3609 320.902C85.4944 322.206 83.9739 324.346 82.2467 323.856L81.838 323.112C81.7656 322.249 81.9182 321.85 82.3788 321.143C90.3808 308.863 98.6301 296.64 106.764 284.456L152.356 216.038L296.421 0Z"/><path fill="#E82D25" transform="scale(3.28947 1.82815)" d="M304 37.3306C303.592 37.902 302.544 40.8935 301.847 42.0608C300.085 45.0112 298.17 47.7088 296.261 50.5531L255.129 112.239L127.199 304.189C123.021 310.425 99.2868 347.167 96.8393 348.844C96.2349 349.258 95.959 349.307 95.2791 349.175C94.4903 348.177 94.7798 346.988 95.431 345.998C97.406 342.997 99.4293 340.026 101.42 337.034L114.566 317.348L151.724 261.693L259.063 100.646L287.702 57.6808C292.344 50.7337 300.838 39.0161 304 32.0138L304 37.3306Z"/><path fill="#E82D25" transform="scale(3.28947 1.82815)" d="M173.761 0L177.393 0C168.803 13.9875 158.321 28.8722 149.184 42.6284L91.4681 129.248L39.1037 207.748L16.3336 241.907C10.926 250.033 5.68613 258.211 0 266.15L0 260.435C8.00272 248.154 16.4199 235.83 24.5747 223.628L68.1496 158.307L173.761 0Z"/><path fill="#096665" transform="scale(3.28947 1.82815)" d="M212.271 0L215.921 0C214.798 2.13216 210.307 8.51656 208.724 10.8912L193.542 33.6658L143.947 108.201L75.6657 210.725L50.1166 249.041C46.0564 255.104 42.1244 261.346 37.9015 267.288C37.4224 267.963 36.9338 268.398 36.0928 268.508C35.2376 268.2 35.5153 268.424 35.0364 267.675C34.7901 264.833 40.6973 257.181 42.5211 254.483L53.0863 238.648L87.6512 186.84L169.178 64.6787C183.311 43.47 198.626 21.3677 212.271 0Z"/><path fill="#BF9F5C" transform="scale(3.28947 1.82815)" d="M304 90.9821C303.189 92.1276 302.899 93.9865 302.419 94.8477C299.695 99.7327 295.604 105.447 292.519 110.067L265.54 150.364L154.756 316.547L128.261 356.297C126.467 358.993 114.31 378.017 112.674 378.75C111.808 378.709 112.133 378.823 111.437 378.329C110.737 375.951 117.816 366.89 119.385 364.545L132.09 345.413L166.075 294.383L270.331 137.902L290.204 108.141C295.172 100.72 299.798 94.3328 304 86.458L304 90.9821Z"/><path fill="#96CE42" transform="scale(3.28947 1.82815)" d="M105.703 547C109.269 541.291 113.529 535.324 117.279 529.652L149.943 480.626L245.625 337.109L284.663 278.409L295.389 262.312C298.828 257.155 301.232 253.901 304 248.306L304 253.129C302.931 254.935 302.384 257.009 301.263 258.79C299.782 261.143 298.159 263.405 296.599 265.706L288.709 277.497L262.278 317.142L196.12 416.37L137.21 504.664L119.174 531.791C116.276 536.176 112.049 543.002 108.993 547L105.703 547Z"/><path fill="#FFFE03" transform="scale(3.28947 1.82815)" d="M287.914 0L291.503 0C279.367 18.7097 266.456 37.4588 254.096 56.0576L171.185 180.423L127.783 245.68C120.769 256.221 113.761 266.817 106.635 277.286C106.135 278.022 105.596 278.765 104.737 278.996C103.882 278.676 104.151 278.913 103.728 278.108C103.654 276.862 104.215 275.53 104.881 274.513C108.592 268.842 112.531 263.227 116.279 257.582L145.33 214.006L247.923 60.1095L272.736 22.8521C277.347 16.001 283.917 6.91022 287.914 0Z"/><path fill="#096665" transform="scale(3.28947 1.82815)" d="M95.0492 547C107.351 528.025 120.511 508.789 133.084 489.955L201.697 386.963L249.82 314.72C256.979 303.965 264.073 293.148 271.392 282.505C272.676 280.637 274.559 275.841 277.18 277.023C277.421 277.445 277.727 277.91 277.427 278.414C273.637 284.777 268.176 292.685 264.154 298.743L217.958 367.978L135.018 492.305L109.819 530.174C106.519 535.103 101.972 542.418 98.4905 547L95.0492 547Z"/><path fill="#A42E9C" transform="scale(3.28947 1.82815)" d="M252.507 0L256.138 0C253.857 3.93322 249.388 10.2128 246.78 14.1586L223.974 48.2578L156.185 150.044L105.744 225.838L88.486 251.745C86.2219 255.113 83.863 258.738 81.5288 262.072C81.0139 262.807 80.4258 262.812 79.6829 262.855C78.1534 261.742 78.9592 260.409 79.8429 259.067C86.2882 249.282 92.7689 239.504 99.3042 229.781L131.147 182.096L252.507 0Z"/><path fill="#96CE42" transform="scale(3.28947 1.82815)" d="M222.924 0L226.292 0C224.723 3.02067 219.06 11.0068 216.799 14.4002L196.255 45.1838L128.05 147.647L69.2134 235.982L52.947 260.351C51.4979 262.521 45.9076 272.065 43.7439 272.155C42.0498 270.896 43.577 268.865 44.4766 267.497C49.595 259.713 54.7822 251.971 59.952 244.221L92.8103 195.074L222.924 0Z"/><path fill="#050AFE" transform="scale(3.28947 1.82815)" d="M279.543 0L283.505 0C278.977 7.19818 273.764 14.6606 269.012 21.7765L239.208 66.3565L157.481 189.039L125.117 237.588L116.898 249.943C115.502 252.056 113.614 256.426 110.855 256.474L110.43 255.983C109.975 253.397 114.058 248.478 115.614 246.154L125.045 232.042L154.58 187.744L254.295 38.1958L270.789 13.4234C273.04 10.0666 277.917 3.21144 279.543 0Z"/><path fill="#00FEFE" fill-opacity="0.98431373" transform="scale(3.28947 1.82815)" d="M304 189.608L304 194.608C302.969 196.256 302.239 198.349 300.856 200.445C294.417 210.199 287.916 219.915 281.402 229.614L253.905 270.877L184.136 375.545L138.6 443.783L124.918 464.313C122.8 467.471 120.658 470.731 118.459 473.831C117.888 474.635 117.385 474.751 116.528 474.845L116.042 474.448C115.501 472.111 121.005 465.054 122.623 462.672L130.841 450.327L158.055 409.529L248.36 274.264L278.846 228.325L294.267 205.283C296.538 201.9 298.876 198.557 301.139 195.173C302.331 193.392 302.941 191.41 304 189.608Z"/><path fill="#FEB53B" transform="scale(3.28947 1.82815)" d="M304 268.381C303.545 268.977 302.042 273.208 301.083 274.608C299.019 277.622 296.91 280.763 294.864 283.791L282.858 301.756L237.619 369.659L127.469 534.859C126.891 535.71 126.451 536.57 125.44 536.812C124.536 536.604 124.877 536.772 124.155 536.082C124.035 535.111 124.193 534.799 124.803 533.859C130.236 525.493 135.854 517.211 141.367 508.905L178.149 453.834L274.937 308.587L292.281 282.607C295.416 277.934 298.595 273.232 301.694 268.535C302.674 267.05 303.103 265.153 304 263.575L304 268.381Z"/><path fill="#FFFE03" transform="scale(3.28947 1.82815)" d="M59.7596 547C66.5942 535.846 75.6943 522.955 83.0065 512.044L123.961 450.599L193.647 345.997C205.804 327.79 217.841 309.447 230.169 291.352C230.71 290.557 231.379 289.57 232.345 289.304C233.297 289.494 233.069 289.298 233.502 289.925C233.408 292.792 225.297 303.773 223.344 306.678L209.448 327.547L174.848 379.387L63.1491 547L59.7596 547Z"/><path fill="#A42E9C" transform="scale(3.28947 1.82815)" d="M135.419 547C135.99 545.813 137.825 543.164 138.603 541.98L145.867 531.086L172.012 491.848L262.376 356.311L288.328 317.459L296.763 304.83C298.237 302.654 299.888 300.439 301.282 298.232C302.269 296.668 303.093 294.627 304 292.955L304 297.745C303.307 299.103 302.375 301.529 301.689 302.632C299.505 306.141 296.965 309.687 294.652 313.129L282.688 331.198L248.332 382.64L138.874 547L135.419 547Z"/><path fill="#08FF07" fill-opacity="0.98823529" transform="scale(3.28947 1.82815)" d="M304 113.808L304 119.578C303.311 120.545 301.799 124.259 300.298 126.474L271.072 170.236L187.241 295.89L162.837 332.513C160.905 335.422 151.803 350.597 149.131 350.495L148.833 350.157C148.599 348.871 148.737 347.91 149.478 346.819C153.176 341.372 156.916 335.833 160.561 330.364L187.2 290.475L268.402 168.515L291.217 134.325C294.868 128.851 298.553 123.369 302.176 117.875C303.126 116.433 303.075 115.302 304 113.808Z"/><path fill="#096665" transform="scale(3.28947 1.82815)" d="M304 309.526C303.547 310.166 302.8 312.401 302.384 313.248C301.844 314.347 301.321 315.071 300.654 316.084L279.528 347.698L198.549 469.318L176.696 501.902C173.562 506.588 170.552 511.445 167.369 516.093C166.72 517.041 165.497 518.368 164.289 518.535C163.771 518.247 163.839 518.385 163.632 517.758C163.43 517.035 163.54 516.178 163.955 515.547C167.394 510.319 170.895 505.122 174.361 499.914L196.749 466.334L271.416 354.5L292.557 322.687C295.644 318.057 298.869 313.458 301.961 308.829C302.793 307.583 303.215 305.842 304 304.444L304 309.526Z"/><path fill="#96CE42" transform="scale(3.28947 1.82815)" d="M138.88 0L142.446 0C138.351 6.77526 133.383 13.9035 128.938 20.4991L114.927 41.5441L75.1097 101.152L24.913 176.477C16.7308 188.753 8.43917 201.641 0 213.666L0 208.359C11.3896 190.774 23.6167 172.997 35.2645 155.527L103.678 52.8449C115.353 35.3559 127.564 17.6798 138.88 0Z"/><path fill="#FFFE03" transform="scale(3.28947 1.82815)" d="M0 235.065C11.8872 218.066 23.7666 199.639 35.2934 182.323L94.0992 94.1517L116.169 61.11C117.704 58.8259 124.034 48.5774 125.594 47.8605C126.65 47.8724 126.312 47.7241 126.985 48.3C127.572 50.7459 120.386 60.0588 118.662 62.6718L98.4588 93.065L43.0765 176.2L13.225 221.038L5.00805 233.459C3.75779 235.365 1.37861 239.192 0 240.792L0 235.065Z"/><path fill="#096665" transform="scale(3.28947 1.82815)" d="M304 358.425L304 363.495L303.924 363.655C303.434 364.716 302.681 367.127 302.208 367.892C300.407 370.803 298.294 373.85 296.382 376.692L285.15 393.464L253.963 440.377L205.538 513.012L191.004 534.638C188.35 538.62 185.541 543.218 182.706 547L179.069 547C180.949 543.722 184.977 538.201 187.245 534.788L205.26 507.704L267.489 414.405L292.307 377.215C295.45 372.46 298.727 367.798 301.843 363.029C302.758 361.629 303.16 359.884 304 358.425Z"/><path fill="#BF9F5C" transform="scale(3.28947 1.82815)" d="M125.709 547C136.902 529.516 149.41 511.315 160.996 494.019L208.71 422.409L245.093 367.907L257.11 349.92C258.605 347.662 260.111 345.413 261.635 343.174C262.648 341.685 263.503 339.115 265.762 339.481C266.103 339.866 266.197 339.934 266.14 340.462C265.917 342.531 248.653 367.574 246.447 370.899L171.37 483.458L144.481 523.766C139.823 530.792 133.852 540.46 128.966 547L125.709 547Z"/><path fill="#FFFE03" transform="scale(3.28947 1.82815)" d="M304 345.637L304 350.886L303.891 351.068C302.928 352.697 302.337 354.596 301.305 356.165C295.386 365.161 289.329 374.157 283.348 383.105L249.557 433.796L174.248 547L170.55 547C180.071 532.244 190.428 517.227 200.199 502.569L266.49 403.301L289.251 369.208C293.784 362.462 300.855 352.832 304 345.637Z"/><path fill="#A42E9C" transform="scale(3.28947 1.82815)" d="M304 51.5283L304 56.5506C303.235 57.9849 302.885 59.2397 302 60.7244C300.201 63.7407 298.195 66.623 296.267 69.5615L281.143 92.1526L233.136 164.143L199.178 215.079C195.009 221.273 191.029 227.881 186.614 233.91C186.092 234.623 185.045 235.449 184.129 235.509C183.398 235.055 183.635 235.317 183.273 234.461C183.334 233.313 184.352 231.816 184.997 230.853C192.464 219.702 200.037 208.608 207.431 197.408L279.515 89.1385L292.983 68.9462C297.034 62.9025 300.541 57.9765 304 51.5283Z"/><path fill="#FFFE03" transform="scale(3.28947 1.82815)" d="M123.788 0L127.29 0C125.829 2.48254 123.349 5.83672 121.65 8.37879L110.72 24.8956L73.4742 80.7885L32.3175 142.704L19.5966 161.774C17.9075 164.316 12.408 173.871 9.08048 175.34C8.79393 175.467 8.57288 175.141 8.32492 174.908C7.81332 172.788 15.6701 162.08 17.3761 159.507L34.946 133.087L97.1569 39.8094L115.463 12.4318C118.094 8.49704 121.409 3.97445 123.788 0Z"/><path fill="#96CE42" transform="scale(3.28947 1.82815)" d="M151.004 547C155.897 539.005 162.443 529.761 167.721 521.861L199.994 473.559L239.135 414.873C248.439 400.835 257.868 386.888 267.165 372.848C268.008 371.575 269.076 369.825 270.676 370.509C271.484 372.701 267.442 377.558 266.073 379.548L259.138 389.826L228.007 436.501L177.832 511.971L162.661 534.768C160.441 538.106 156.716 544.072 154.326 547L151.004 547Z"/><path fill="#00FEFE" fill-opacity="0.98431373" transform="scale(3.28947 1.82815)" d="M106.642 0L109.921 0C106.953 4.94931 102.903 10.7007 99.6536 15.5708L82.67 41.0438L39.8425 105.388L12.6695 146.143L4.57915 158.281C3.5405 159.835 1.14961 163.557 0 164.855L0 159.793C3.47647 155.028 7.40038 148.589 10.7696 143.562L36.0735 105.709L106.642 0Z"/><path fill="#BF9F5C" transform="scale(3.28947 1.82815)" d="M197.151 547C198.427 544.449 203.39 537.507 205.266 534.72L220.251 512.144L275.177 429.724L292.001 404.592C296.404 398.016 300.294 392.626 304 385.642L304 390.144C302.954 391.872 302.452 394.018 301.333 395.749C299.376 398.778 297.293 401.726 295.284 404.723L283.456 422.504L242.86 483.419L215.344 524.7L206.306 538.369C204.624 540.916 202.263 544.656 200.395 547L197.151 547Z"/><path fill="#75379E" transform="scale(3.28947 1.82815)" d="M114.297 0L118.189 0L50.1038 102.209L32.4211 128.768C30.4877 131.673 28.5725 134.594 26.6361 137.497C25.7431 138.836 25.4999 139.401 23.8052 139.321C23.0056 138.733 23.2441 139.052 22.9067 138.116C22.9422 136.368 28.9756 128.071 30.3255 126.051L44.7043 104.487L88.1619 39.2728L104.356 14.9602C107.555 10.1751 111.319 4.85837 114.297 0Z"/><path fill="#BF9F5C" transform="scale(3.28947 1.82815)" d="M0 543.299L79.4121 424.328L96.1768 399.237C98.2363 396.143 100.165 392.956 102.253 389.886C103.118 388.615 104.065 387.268 105.722 387.638C106.643 389.928 98.8594 400.108 97.1937 402.615L76.0251 434.417L22.8382 514.24C15.6025 525.04 8.27529 536.365 0.878915 547L0 547L0 543.299Z"/><path fill="#E82D25" transform="scale(3.28947 1.82815)" d="M208.675 547C214.686 538.955 221.968 527.301 227.685 518.743L264.637 463.356L289.128 426.629C294.085 419.189 300.273 410.835 304 402.952L304 408.539C303.078 410.142 302.577 412.027 301.537 413.625C298.422 418.41 295.165 423.104 292.001 427.861L270.862 459.587L212.715 547L208.675 547Z"/><path fill="#03B2A8" transform="scale(3.28947 1.82815)" d="M304 155.997L304 160.786C303.494 161.832 302.587 164.468 302.157 165.158C299.524 169.375 296.535 173.672 293.756 177.801L279.428 199.409L239.629 258.981L219.703 288.853C217.51 292.138 215.344 295.551 213.082 298.795C212.564 299.539 212.039 299.809 211.164 299.789C210.977 299.637 210.544 299.353 210.525 299.173C210.223 296.227 215.392 290.179 216.887 287.899L233.671 262.633L282.255 189.597C288.734 179.87 298.782 165.801 304 155.997Z"/><path fill="#08FF07" fill-opacity="0.98823529" transform="scale(3.28947 1.82815)" d="M81.2175 0L85.0007 0L27.8135 85.8321L11.1784 110.809C8.06562 115.512 3.39287 122.901 0 127.265L0 121.915C1.32123 120.198 3.31892 116.872 4.5882 114.94L13.7637 101.059L42.1242 58.6351L69.2746 17.9046C72.5951 12.9087 78.4242 4.88138 81.2175 0Z"/><path fill="#1DA84E" transform="scale(3.28947 1.82815)" d="M304 331.152C303.284 332.199 302.416 335.133 300.593 337.835L245.637 420.145L231.869 440.925C230.156 443.523 224.789 452.936 222.199 453.106L221.705 452.605C221.444 451.693 221.306 451.39 221.859 450.43C223.537 447.514 225.697 444.674 227.583 441.867L238.855 424.894L280.933 361.857L293.937 342.375C298.006 336.266 300.767 332.573 304 326.028L304 331.152Z"/><path fill="#A42E9C" transform="scale(3.28947 1.82815)" d="M221.726 547C239.922 519.06 258.937 491.165 277.46 463.404L292.205 441.364C296.604 434.82 300.296 429.714 304 422.694L304 427.303C300.543 435.125 296.098 440.718 291.332 447.867L272.725 475.806L241.611 522.601C236.393 530.43 230.65 539.46 225.179 547L221.726 547Z"/><path fill="#096665" transform="scale(3.28947 1.82815)" d="M72.0531 0L75.6329 0L21.8575 80.8449L7.00176 103.225C4.88953 106.381 2.28941 110.588 0 113.485L0 107.985C6.43646 98.7735 12.4419 89.1244 18.7579 79.8181C36.697 53.3858 54.0416 26.3601 72.0531 0Z"/><path fill="#050AFE" transform="scale(3.28947 1.82815)" d="M304 173.611L304 178.928C303.379 180.065 303.079 181.309 302.449 182.349C299.859 186.624 296.895 190.877 294.108 195.037L278.406 218.559L254.586 254.251C247.971 264.274 241.355 274.328 234.62 284.275C234.082 285.069 233.314 286.152 232.386 286.419C231.514 286.245 231.819 286.423 231.24 285.746C230.738 283.399 235.674 277.153 237.156 274.948L247.555 259.416L282.193 207.336L294.781 188.529C297.268 184.822 299.85 181.083 302.168 177.276C302.875 176.114 303.319 174.845 304 173.611Z"/><path fill="#A42E9C" transform="scale(3.28947 1.82815)" d="M100.025 0L103.856 0C103.379 0.889171 102.809 1.71344 102.235 2.5418C97.6232 9.19653 93.1988 15.973 88.7187 22.7167L51.9768 77.9109C48.123 83.8019 44.2398 89.6945 40.2178 95.4733C39.3235 96.7582 39.2106 97.1149 37.7012 96.6688C35.6292 94.5954 39.3216 90.9646 40.6053 89.0509L48.7608 76.8581L72.6783 41.0453L90.4283 14.117C93.2775 9.82119 96.9544 3.97494 100.025 0Z"/><path fill="#BF9F5C" transform="scale(3.28947 1.82815)" d="M144.259 0L147.876 0C142.341 7.20794 135.075 19.0941 129.826 26.9634L93.15 81.8928C91.2257 84.7674 80.5502 102.314 78.0351 102.039C77.1861 100.971 77.5644 100.083 78.2065 99.0345C81.1737 94.1908 84.4667 89.4084 87.6159 84.6896L103.89 60.2645L129.443 22.0518C134.387 14.6674 139.144 7.2731 144.259 0Z"/><path fill="#FEB53B" transform="scale(3.28947 1.82815)" d="M233.263 0L236.679 0C235.634 2.01612 230.86 8.87249 229.449 10.9938L213.765 34.5062L183.87 79.2883C179.604 85.6719 175.412 92.1329 171.133 98.5088C170.518 99.4246 169.506 100.696 168.65 101.386C167.988 101.919 167.857 101.92 167.166 101.835C166.631 101.048 166.759 99.6533 167.256 98.8934C169.26 95.8282 171.376 92.7951 173.411 89.7509L186.746 69.7247L233.263 0Z"/><path fill="#96CE42" transform="scale(3.28947 1.82815)" d="M61.6734 0L65.0572 0C52.2076 19.7504 38.7681 39.3986 25.7451 59.0695L9.16049 83.9455C6.57385 87.8201 2.7242 93.9438 0 97.5262L0 92.4366C6.01119 83.7562 11.9552 74.5116 17.8379 65.6875L61.6734 0Z"/><path fill="#096665" transform="scale(3.28947 1.82815)" d="M260.326 0L263.941 0C263.283 1.30643 260.953 4.66387 260.074 5.98479L252.289 17.6579L227.662 54.5473L215.184 73.3217C213.854 75.3182 209.065 83.4316 206.899 83.4965L206.605 83.0471C206.256 79.6706 209.684 75.9096 211.541 73.1318L221.429 58.2879L249.25 16.5396C252.846 11.1319 256.883 5.40824 260.326 0Z"/><path fill="#E82D25" transform="scale(3.28947 1.82815)" d="M181.171 0L184.925 0C169.106 23.0733 154.105 46.8624 138.361 70.0076C137.193 71.7252 133.563 78.2011 131.473 77.8735C129.576 75.366 133.704 70.9063 135.073 68.8451L145.146 53.7836L169.406 17.4977C173.255 11.7448 177.469 5.8049 181.171 0Z"/><path fill="#BF9F5C" transform="scale(3.28947 1.82815)" d="M304 457.558L304 462.094L303.9 462.273C302.981 463.932 302.245 466.3 301.257 467.828C297.936 472.963 294.445 478.129 291.049 483.207L270.281 514.29L255.948 535.852C253.851 539.003 250.621 544.244 248.404 547L245.08 547C249.383 539.913 255.551 531.2 260.221 524.199L287.268 483.495C292.679 475.367 299.651 465.996 304 457.558Z"/><path fill="#E82D25" transform="scale(3.28947 1.82815)" d="M50.3048 0L54.0633 0C51.1371 4.87984 46.9661 10.806 43.7635 15.6112L23.9702 45.2475C18.7488 53.0721 13.5389 60.9073 8.3062 68.7244C7.6394 69.7205 6.99629 71.1029 5.73625 70.9209C5.05919 70.3709 4.97 70.2976 4.77693 69.4544C4.82274 68.6374 5.22412 67.8121 5.65941 67.1307C20.0866 44.546 35.9284 22.5856 50.3048 0Z"/><path fill="#BF9F5C" transform="scale(3.28947 1.82815)" d="M41.6675 0L45.1 0C32.5812 20.0443 18.2788 39.5214 5.5625 59.4844C3.97333 61.9792 1.80743 65.2039 0 67.5288L0 62.5834L26.6039 22.4571C31.5263 15.1154 36.9498 7.41533 41.6675 0Z"/><path fill="#08FF07" fill-opacity="0.98823529" transform="scale(3.28947 1.82815)" d="M304 490.646L304 495.994C301.452 501.65 298.116 506.418 294.636 511.525C286.648 523.243 279.051 535.401 270.909 547L267.123 547L290.215 512.355C294.545 505.844 300.646 497.459 304 490.646Z"/><path fill="#FFFE03" transform="scale(3.28947 1.82815)" d="M33.3363 0L37.0141 0C34.4087 4.30588 30.9518 9.14021 28.1122 13.3685L14.2012 34.2858L4.73512 48.5759C3.63068 50.2319 1.18049 54.0874 0 55.4579L0 50.2479L22.6759 15.9946C25.9491 11.0839 30.4359 4.94947 33.3363 0Z"/><path fill="#1DA84E" transform="scale(3.28947 1.82815)" d="M304 278.022L304 283.088C303.366 283.939 302.916 285.756 302.326 286.709C293.591 300.818 283.898 314.413 274.914 328.385C273.649 330.351 270.658 335.674 268.322 335.557C267.642 334.697 267.714 333.781 268.309 332.879C270.512 329.536 272.746 326.209 274.969 322.878L292.241 296.985C296.601 290.438 300.579 285.091 304 278.022Z"/><path fill="#096665" transform="scale(3.28947 1.82815)" d="M27.2275 0L30.9973 0C28.2852 4.95058 21.215 14.97 17.7331 20.1003C12.3407 28.0457 5.73636 38.7604 0 46.1589L0 40.607C8.3829 27.7438 18.373 12.3099 27.2275 0Z"/><path fill="#96CE42" transform="scale(3.28947 1.82815)" d="M304 100.091C302.813 101.66 302.347 103.99 301.264 105.708C298.388 110.268 277.654 141.849 275.752 143.218C275.148 143.654 274.879 143.72 274.183 143.602C273.521 142.746 273.41 142.116 274.024 141.137C276.416 137.327 278.944 133.59 281.442 129.848L294.669 110.082C297.427 105.993 300.597 101.854 302.849 97.4715C303.351 96.4933 303.359 95.7634 304 94.7576L304 100.091Z"/><path fill="#03B2A8" transform="scale(3.28947 1.82815)" d="M304 501.281L304 506.346C301.36 512.717 293.787 523.094 289.607 529.411C286.294 534.418 281.201 542.424 277.78 547L274.361 547C275.543 544.823 277.158 542.591 278.541 540.517C286.415 528.708 294.319 516.909 302.085 505.029C302.909 503.768 303.235 502.524 304 501.281Z"/><path fill="#00FEFE" fill-opacity="0.98431373" transform="scale(3.28947 1.82815)" d="M203.402 0L206.821 0C205.804 2.21217 200.924 8.67392 199.356 11.1048C194.441 18.7274 189.159 26.2255 184.201 33.8241C182.886 35.8394 179.377 42.4192 177.054 42.1934C176.393 41.4222 176.309 40.5532 176.869 39.6718C179.771 35.1018 182.859 30.6381 185.892 26.1516L203.402 0Z"/><path fill="#BF9F5C" transform="scale(3.28947 1.82815)" d="M93.4792 0L96.899 0C95.903 1.9242 93.4426 5.4986 92.207 7.35928L84.0418 19.636C81.8079 23.0087 79.6428 26.4459 77.3379 29.7656C76.6905 30.6981 75.3086 31.0912 74.3806 30.2159C74.0196 28.4509 79.6446 20.8006 80.9108 18.8783C85.0653 12.5713 89.4108 6.36941 93.4792 0Z"/><path fill="#FFFE03" transform="scale(3.28947 1.82815)" d="M304 513.658L304 518.304C302.834 520.06 302.661 522.131 301.24 524.254C296.174 531.826 291.062 539.402 286.037 547L282.702 547C284.109 544.582 286.306 541.554 287.92 539.146L296.611 526.09C299.542 521.733 301.934 518.514 304 513.658Z"/><path fill="#96CE42" transform="scale(3.28947 1.82815)" d="M16.3909 0L19.8651 0C13.0012 9.09971 6.78146 20.3504 0 29.3713L0 24.3742L10.4653 8.64939C12.4021 5.78105 14.561 2.91095 16.3909 0Z"/><path fill="#1DA84E" transform="scale(3.28947 1.82815)" d="M274.775 0L278.386 0C276.474 3.63136 269.224 14.407 266.266 17.943C265.926 18.3486 265.149 18.1042 264.67 17.9979C264.484 17.8322 264.157 17.6327 264.111 17.3876C263.706 15.2378 273.087 2.62755 274.775 0Z"/><path fill="#96CE42" transform="scale(3.28947 1.82815)" d="M24.1495 547C26.1648 543.724 35.0294 529.136 37.8399 528.374L38.3043 528.537C39.1149 530.552 36.333 534.152 35.1019 535.862C32.5418 539.417 30.2156 543.541 27.5869 547L24.1495 547Z"/><path fill="#03B2A8" transform="scale(3.28947 1.82815)" d="M131.225 0L134.948 0C132.875 3.64983 129.966 7.2973 127.724 10.892C126.657 12.601 124.692 15.8736 122.585 15.909C122.311 15.6356 122.065 15.48 121.984 15.0884C121.606 13.2595 129.794 2.20136 131.225 0Z"/><path fill="#BF9F5C" transform="scale(3.28947 1.82815)" d="M7.5568 0L10.9734 0C9.82268 2.24099 1.78811 14.2722 0 16.4554L0 11.4852C2.53331 7.8477 5.12592 3.73985 7.5568 0Z"/><path fill="#00FEFE" fill-opacity="0.98431373" transform="scale(3.28947 1.82815)" d="M0 0L4.83413 0C4.00301 1.52329 1.22067 5.66662 0 6.82072L0 0Z"/><path fill="#75379E" transform="scale(3.28947 1.82815)" d="M299.554 547C301.279 544.321 302.537 542.275 304 539.457L304 547L299.554 547Z"/></svg>
