<?xml version="1.0" encoding="utf-8" ?><svg xmlns="http://www.w3.org/2000/svg" xmlns:xlink="http://www.w3.org/1999/xlink" width="3316" height="940" viewBox="0 0 3316 940"><path fill="#015857" d="M2225.52 78.2352C2226.2 78.1376 2227.25 77.9508 2227.9 77.9638C2321.98 79.8499 2418.59 129.154 2421.69 234.549C2425.35 358.699 2333.62 440.378 2213.82 449.675C2167.77 451.539 2121.9 441.201 2083.22 415.246C1995.82 356.603 1998.37 234.14 2062.78 159.408C2088.88 129.12 2118.14 106.496 2156.41 93.2321C2178.6 85.5419 2202.44 82.422 2225.52 78.2352ZM2119.18 241.831C2112.24 266.023 2111.43 292.253 2119.13 316.363C2121.76 320.142 2123.78 327.15 2126.44 330.595C2175.47 395.158 2274.15 379.692 2310 308.681C2378.82 172.348 2199.81 103.194 2130.05 218.995C2125.62 226.345 2122.89 234.343 2119.18 241.831Z"/><path fill="white" fill-opacity="0.019607844" d="M2119.18 241.831C2119.91 254.907 2118.75 267.785 2118.67 280.897C2118.6 292.255 2120.12 305.222 2119.13 316.363C2111.43 292.253 2112.24 266.023 2119.18 241.831Z"/><path fill="#015857" d="M1402.4 77.4101L1493.52 77.425C1533.06 77.4512 1556.6 76.2665 1594.98 89.8198C1655.27 111.107 1683.7 174.601 1661.93 233.996C1644.86 280.591 1608.24 302.845 1565.69 322.505C1584.11 364.206 1595.79 412.732 1613.06 450.042C1593.86 451.631 1542.89 452.579 1526.25 444.943C1509.41 437.212 1503.16 424.665 1497.13 408.445C1486.49 380.542 1480.17 349.099 1469.36 324.27C1459.16 323.584 1397.34 322.441 1391.01 324.621C1382.52 327.539 1366.49 432.93 1357.57 448.18C1353.8 451.629 1276.84 450.363 1265.44 450.376L1265.51 449.833C1267.1 438.894 1270.45 428.547 1272.44 417.639C1279.02 381.389 1288.8 346.163 1296.87 310.418C1310.51 249.953 1322.03 188.763 1338.82 129.004C1340.79 121.987 1344.8 109.043 1349.43 103.473C1362.62 87.5976 1382.28 79.498 1402.4 77.4101ZM1407.24 244.048C1439.79 245.847 1480.37 245.689 1513.21 245.711C1532.52 244.622 1545.71 241.67 1559.46 227.533C1580.26 206.142 1570.56 166.502 1540.89 161.127C1519.72 157.292 1490.25 159.671 1468.23 159.505C1459.49 159.447 1432.95 158.117 1426.65 161.612C1422.64 170.96 1408.29 233.319 1407.24 244.048Z"/><path fill="#015857" d="M2510.09 77.7133C2529.27 76.4244 2552.44 76.0544 2571.43 78.162C2608.14 82.2382 2620.14 106.212 2634.45 136.078C2654.45 177.835 2671.34 220.446 2692.12 261.805C2699.05 275.594 2705.69 290.674 2714.82 303.022C2728.37 236.296 2749.64 167.496 2762.53 99.2965C2764.42 91.661 2766.11 85.0363 2768.51 77.5578C2779.18 77.2911 2856.79 76.0372 2862.52 78.4892C2861.34 86.9029 2859.66 93.8487 2857.92 102.118C2835.55 194.384 2818.96 288.655 2794.9 380.665C2789.25 402.275 2781.85 428.372 2778.23 450.269C2760.34 451.613 2739.78 450.727 2721.81 450.486C2708.74 449.659 2696.09 446.528 2686.32 437.557C2671.98 424.387 2665.76 406.57 2657.72 389.239C2645.44 362.753 2635.02 336.218 2621.13 310.415C2613.31 295.9 2607.27 279.152 2599.19 264.576C2591.89 251.258 2586.02 234.289 2576.18 222.821C2569.73 223.701 2568.29 244.985 2566.01 250.964C2557.72 272.71 2526.33 442.827 2519.03 449.451C2511 452.07 2429.03 451.789 2425.79 447.962C2426.82 437.486 2431.12 422.518 2433.54 411.563L2449.47 338.361C2463.18 274.683 2477.28 210.859 2492.41 147.508C2498.24 123.087 2500.71 101.429 2510.09 77.7133Z"/><path fill="#055457" d="M2768.51 77.5578C2779.18 77.2911 2856.79 76.0372 2862.52 78.4892C2861.34 86.9029 2859.66 93.8487 2857.92 102.118C2857.37 97.9841 2857.63 89.135 2857.65 84.63C2836.69 82.3827 2796.72 82.7752 2774.54 85.8711C2767.44 86.8629 2773.25 96.3503 2762.53 99.2965C2764.42 91.661 2766.11 85.0363 2768.51 77.5578Z"/><path fill="#015857" d="M2974.05 77.4597C3046.89 76.1939 3120.15 77.8636 3193.02 77.3284C3197.97 77.2921 3212.22 75.5468 3215.84 77.6454C3218.06 82.1327 3210.95 99.751 3209.09 105.438C3206.8 112.46 3199.92 157.292 3195.18 158.392C3170.59 164.1 3010.14 154.962 2998.76 161.862C2995.05 169.154 2985.46 213.784 2984.25 223.179C3048.1 225.308 3113.57 223.012 3177.61 224.264C3172.87 240.71 3169.51 258.357 3165.44 275.026C3163.74 282.024 3161.59 294.302 3158.93 300.325C3148.08 303.274 3104.66 302.078 3089.92 302.235C3047.98 302.681 3005.7 301.565 2963.72 303.91C2961.9 313.025 2960.02 322.824 2957.67 331.765C2956.66 335.134 2951.39 365.565 2951.04 369.117C2953.37 373.673 3000.25 372.206 3007.5 372.207L3104.49 372.225C3112.58 372.231 3141.44 371.233 3146.19 374.109C3148.62 379.457 3143.42 392.794 3141.86 398.754C3128.63 449.456 3103.07 449.917 3059.39 450.129L3002.37 450.277C2948.65 450.357 2889.76 451.62 2836.42 450.171C2840.89 435.426 2847.26 402.008 2850.55 385.597C2858.26 347.094 2868.55 309.159 2876.73 271.164L2897.46 178.732C2901.68 160.402 2908.97 120.323 2918.73 105.101C2929.47 88.3351 2954.36 79.5775 2974.05 77.4597Z"/><path fill="#015857" d="M1060.14 77.4461C1123.5 76.5356 1187.27 78.0166 1250.67 77.5454C1267.73 77.4185 1285.59 77.4109 1302.6 78.0947C1300.1 86.282 1284.99 156.972 1283.95 157.806C1276.23 163.951 1095.83 154.62 1088.35 161.153C1082.57 166.204 1072.36 213.164 1071.3 223.037C1082.5 224.572 1106.6 224.015 1118.46 224.033L1209.72 224.15C1224.62 224.171 1249.56 223.618 1263.77 225.104C1260.66 234.221 1257.92 248.561 1255.8 258.349C1252.87 271.874 1248.48 287.832 1246.48 301.304C1230.87 302.26 1211.86 301.804 1196.03 301.818L1109.85 301.888C1098.54 301.902 1060.41 301.071 1052.76 303.822C1047.81 309.016 1045.89 325.413 1043.56 333.757C1041.87 343.276 1037.55 361.501 1037.3 370.235C1041.67 373.528 1213.58 371.875 1234.75 373.379C1231.86 391.77 1223.58 422.416 1209.75 434.768C1201.4 442.225 1194.55 447.001 1183.15 448.154C1155.74 450.926 1123.5 449.888 1095.92 449.844C1039.01 449.755 981.996 450.238 925.206 449.499C926.999 426.611 938.849 388.956 944.086 365.566C952.404 328.409 993.251 122.796 1010.7 101.721C1022.84 87.0577 1041.48 79.1805 1060.14 77.4461Z"/><path fill="#015857" d="M283.378 77.4589C293.333 77.1276 304.084 77.2445 314.088 77.4113C379.731 78.5063 446.451 75.8382 511.961 78.1259C506.803 89.6732 493.878 145.052 491.179 159.419C475.165 160.704 442.017 159.668 424.938 159.644L296.232 159.666C290.253 175.93 281.867 205.956 280.952 223.271C295.811 224.59 316.046 224.135 331.49 224.216L422.175 224.372C433.613 224.379 463.366 223.769 473.279 225.551C468.653 244.381 459.079 282.538 456.446 301.351C394.532 303.721 326.843 300.452 263.934 302.035C260.192 313.559 257.003 329.008 253.199 339.176C252.843 347.679 248.445 359.646 247.893 370.48C256.401 374.389 417.946 372.174 443.884 373.338C438.115 395.987 437.678 415.814 420.362 433.34C404.009 449.892 389.835 449.134 368.075 449.185C348.422 449.23 328.745 449.136 309.135 449.135L134.817 448.992C136.26 433.967 143.724 406.447 147.403 391.025L168.396 300.898C182.258 241.383 193.284 181.707 209.851 122.746C219.793 87.3611 250.661 78.1165 283.378 77.4589Z"/><path fill="#B3995B" d="M1837.97 214.876C1849.62 213.428 1899.56 129.868 1913.01 114.964C1927.83 98.5359 1938.58 80.8218 1966 78.9528C1995.85 78.0586 2032.79 76.5964 2062.44 79.2277L1902.6 309.295L1852.7 382.187C1837.83 404.033 1813.61 446.789 1786.45 448.676C1756.1 450.785 1712.83 451.38 1682.56 449.604L1741.66 362.859L1763.75 331.25C1765.28 329.06 1768.93 322.887 1769.87 321.67C1774.74 306.781 1829.72 238.063 1838.46 218.483C1838.26 217.039 1838.1 215.836 1837.97 214.876Z"/><path fill="#B3995B" d="M680.843 334.987C689.971 326.268 700.502 311.267 708.502 300.891C757.565 237.259 796.633 166.098 845.591 102.423C870.486 70.0446 924.397 79.9123 960.049 78.8729C966.61 78.6815 977.328 79.315 984.021 79.9692C958.06 110.596 935.824 147.391 913.045 180.768C879.987 229.94 845.089 277.351 812.001 326.531C786.433 364.535 761.089 407.59 728.996 440.184C715.618 453.77 669.4 449.087 650.481 449.63C637.485 450.003 616.827 450.04 603.987 449.268C605.254 446.73 606.875 443.498 608.429 441.13C629.597 408.86 652.207 377.572 674.446 346.038C677.065 342.324 679.024 339.178 680.843 334.987Z"/><path fill="#015857" d="M603.987 449.268C599.944 444.431 593.077 377.646 591.45 367.558L558.142 164.676C554.19 140.346 550.142 116.117 545.677 91.8749C544.982 88.101 544.722 83.7776 544.589 79.9231C548.624 76.4763 632.757 77.7006 644.922 77.8535C647.82 95.2741 649.254 115.438 651.577 133.345L667.046 249.779C668.688 262.831 676.194 325.261 680.843 334.987C679.024 339.178 677.065 342.324 674.446 346.038C652.207 377.572 629.597 408.86 608.429 441.13C606.875 443.498 605.254 446.73 603.987 449.268Z"/><path fill="#015857" d="M1674.73 77.8805C1707.54 76.9742 1749.91 76.4542 1782.36 78.0531C1790.9 98.1031 1798.03 118.856 1806.79 138.837C1812.93 152.838 1817.18 167.69 1822.86 181.859C1827.35 193.043 1833.19 203.785 1837.97 214.876C1838.1 215.836 1838.26 217.039 1838.46 218.483C1829.72 238.063 1774.74 306.781 1769.87 321.67C1767.61 314.847 1767.06 306.701 1763.43 297.701C1755.07 276.982 1746.21 256.478 1737.91 235.731L1674.73 77.8805Z"/><path fill="#015857" d="M1353.18 642.551C1336.45 656.915 1296.84 652.527 1282.39 635.529C1263.93 613.808 1273.61 578.309 1293.44 561.251C1318.4 539.788 1353.22 541.523 1375.12 566.262C1391.36 596.018 1380.71 624.792 1353.18 642.551ZM1358.93 566.652C1349.27 559.105 1340.74 555.929 1328.16 557.35C1274.87 563.375 1266.03 649.815 1333.22 639.91L1334.02 639.788C1363.68 629.764 1385.78 592.628 1358.93 566.652Z"/><path fill="#055457" d="M1358.93 566.652C1362.28 563.733 1370.03 566.028 1375.12 566.262C1391.36 596.018 1380.71 624.792 1353.18 642.551L1349.51 641.407C1345.04 643.024 1331.99 645.873 1327.36 645.495L1327.51 643.98C1329.57 643.27 1331.24 642.598 1333.24 641.762L1334.02 639.788C1363.68 629.764 1385.78 592.628 1358.93 566.652Z"/><path fill="#015857" d="M2575.63 548.414C2584.87 547.841 2602.29 547.368 2610.38 550.94C2633.38 561.086 2646.56 588.14 2636.14 612.028C2628.12 630.432 2614.28 638.744 2596.68 646.054C2576.87 651.488 2555.63 650.273 2535.18 648.905C2541.07 620.406 2549.19 576.134 2558.36 549.541L2575.63 548.414ZM2569.49 559.979C2557.04 578.404 2556.99 619.723 2549.03 636.432C2565.31 638.78 2575.17 640.058 2591.42 637.079C2637.73 621.161 2641.49 557.596 2582.36 558.439C2578.23 558.924 2573.55 559.356 2569.49 559.979Z"/><path fill="#015857" d="M1987.92 548.027C1990.44 548.071 1995.19 548.162 1996.79 549.99C1993.25 564.474 1978.47 644.568 1969.1 649.608C1965.98 648.566 1966.54 648.231 1964.17 645.036C1954.75 643.15 1942.98 658.453 1917.98 646.233C1897.66 624.794 1908.71 584.677 1937.52 576.917C1952.99 572.753 1963.23 577.499 1976.32 584.745C1978.89 577.711 1985.46 550.64 1987.92 548.027ZM1949.13 641.562C1972.83 632.793 1971.04 617.189 1975.54 594.71C1965.54 587.907 1959.58 585.489 1947.24 585.324C1938.18 587.192 1931.07 589.769 1926.21 598.188C1913.76 619.761 1921.63 644.317 1949.13 641.562Z"/><path fill="#015857" d="M2667.32 587.024C2678.65 575.991 2688.41 572.513 2704.06 577.376L2714.55 581.01C2725.24 582.688 2725.38 574.285 2733.63 577.852C2735 589.457 2722.39 636.162 2717.79 647.844C2712.71 651.052 2709.38 645.717 2705.75 645.943C2691.36 646.838 2685.3 653.402 2670.03 650.53C2642.09 630.97 2649.08 609.492 2667.32 587.024ZM2709 634.65C2714.41 622.032 2717.03 609.245 2719.92 595.913C2714.97 592.974 2711.35 591.187 2706.16 588.743C2702.43 587.886 2698.17 587.053 2694.66 585.637C2687.04 587.622 2685.74 588.339 2678.61 592.044C2668.14 599.587 2659.62 613.671 2664.48 626.848C2671.6 646.155 2694.29 639.801 2709 634.65Z"/><path fill="#015857" d="M2667.32 587.024C2678.65 575.991 2688.41 572.513 2704.06 577.376L2714.55 581.01C2708.85 583.427 2708.77 587.779 2706.16 588.743C2702.43 587.886 2698.17 587.053 2694.66 585.637C2687.04 587.622 2685.74 588.339 2678.61 592.044C2676.19 592.197 2675.01 592.362 2672.58 591.857C2670.84 588.787 2670.57 588.446 2667.32 587.024Z"/><path fill="#055457" d="M2704.06 577.376L2714.55 581.01C2708.85 583.427 2708.77 587.779 2706.16 588.743C2702.43 587.886 2698.17 587.053 2694.66 585.637C2699.99 582.356 2699.38 585.191 2704.06 577.376Z"/><path fill="#015857" d="M886.428 575.284C931.809 569.034 946.127 639.312 887.402 651.351C851.844 653.492 837.285 623.088 854.575 594.922C862.798 581.527 872.539 579.128 886.428 575.284ZM887.613 640.936C898.198 638.21 905.473 635.372 911.194 625.311C923.886 602.991 911.248 583.457 885.893 586.321C881.47 587.592 877.3 588.733 873.339 591.203C857.989 600.778 849.939 627.56 869.684 637.167C875.315 639.908 881.398 640.975 887.613 640.936Z"/><path fill="#015857" d="M1850.26 575.293C1865.74 573.929 1880.63 577.667 1889.47 591.57C1918.35 637.006 1830.88 604.132 1827.86 624.511C1831.49 638.042 1845.73 642.824 1858.28 643.277C1864.19 641.176 1872.23 637.098 1878.14 640.167L1878.56 641.959C1867.22 659.615 1822.64 652.518 1817.14 627.251C1811.68 602.192 1825.94 582.363 1850.26 575.293ZM1859.88 609.556C1868.27 609.271 1883.05 610.654 1883.61 599.464C1880.31 590.792 1865.8 584.921 1857.13 584.339C1849 586.016 1829.26 594.456 1829.8 604.366C1834.1 611.195 1852.17 609.737 1859.88 609.556Z"/><path fill="#015857" d="M2301.37 574.246C2321.46 574.144 2336.47 584.807 2340.89 604.351C2345 622.542 2287.65 616.343 2274.53 618.103C2280.93 641.899 2287.4 644.514 2311.31 641.312C2316.14 639.544 2321.17 636.681 2325.19 640.874L2324.78 643.114C2316.42 653.4 2289.87 653.76 2280.33 646.907C2243.46 620.427 2268.49 583.314 2301.37 574.246ZM2305.51 608.638C2312.94 608.409 2324.81 609.23 2330.01 604.448C2332.04 597.441 2325.02 591.619 2320.02 587.238C2313.69 586.152 2309.97 585.512 2303.55 585.302C2293.9 586.7 2277.12 593.407 2276 604.352C2280.87 611.593 2296.94 608.875 2305.51 608.638Z"/><path fill="#015857" d="M1580.7 619.789C1576.18 652.988 1625.76 637.079 1631.54 640.34L1631.42 642.346C1625.18 650.293 1608.46 652.988 1599.74 651.123C1560.4 642.712 1558.58 602.498 1589.28 581.967C1610.7 567.645 1628.49 575.369 1643.04 592.982C1645.71 596.211 1648.64 602.824 1647.62 607.342C1639.88 627.109 1594.51 610.892 1581.01 619.212L1580.7 619.789ZM1578.58 605.654C1590.83 609.965 1597.77 609.563 1610.96 609.331C1619.72 609.173 1633.86 610.814 1636.22 600.009C1633.95 588.545 1617.55 584.337 1607.42 585.252C1593.48 589.291 1587.31 593.717 1578.58 605.654Z"/><path fill="#126464" d="M1580.7 619.789C1573.87 619.579 1578.45 621.586 1572.97 623.452L1571.62 621.338C1570.79 615.883 1572.41 610.043 1577.57 607.461L1579.41 608.374C1581.64 611.355 1581.08 615.403 1581.01 619.212L1580.7 619.789Z"/><path fill="#015857" fill-opacity="0.98823529" d="M2483.64 575.915C2485.62 575.905 2487.06 576.439 2488.96 576.968L2489.13 578.161C2466.43 609.697 2447.97 644.447 2423.39 674.516C2418.65 680.324 2406.96 686.644 2400.74 679.429C2400.71 670.863 2407.49 671.287 2414.36 670.285C2420.05 665.454 2423.52 660.264 2431.02 654.243C2426.67 626.493 2419.31 609.628 2414.24 584.412C2402.86 585.589 2381.14 584.657 2377.26 597.318C2372.59 608.424 2367.63 644.155 2361.16 649.201C2357.63 649.91 2357.07 649.733 2353.57 648.908C2353.2 648.461 2352.76 647.931 2352.25 647.317C2356.97 627.416 2366.03 595.496 2367.78 576.088C2373.42 577.01 2379.1 579.01 2384.56 580.744C2388.21 579.727 2395.68 577.519 2399.12 577.23C2404.89 576.865 2411.69 579.945 2417.17 577.677C2418.92 576.949 2423.53 577.356 2424.3 578.959C2429.8 590.337 2432.5 622.657 2439.45 631.497C2451.19 628.841 2462.51 584.991 2483.64 575.915Z"/><path fill="#015857" d="M1118.13 574.364C1130.17 574.342 1142.44 578.791 1148.86 589.7C1177.4 638.152 1092.99 604.131 1088.87 624.313C1092.79 640.889 1112.11 643.221 1126.19 642.231C1131.14 640.01 1133.43 638.082 1138.19 639.83L1138.56 641.867C1131.92 651.856 1114.6 652.735 1104.2 649.645C1092.8 646.259 1083.51 637.836 1077.88 627.567C1077.67 600.72 1089.84 579.113 1118.13 574.364ZM1096.3 594.824C1094.18 599.071 1092.67 600.357 1093.01 604.666C1097.26 610.465 1112.36 609.069 1119.7 609.248C1126.63 609.317 1137.15 610.443 1142.66 605.628C1147.57 601.341 1143.56 595.051 1139.51 591.843C1131.69 585.641 1127.03 584.413 1117.26 585.183C1108.14 588.058 1104.4 589.453 1096.3 594.824Z"/><path fill="#055457" d="M572.52 547.286C586.609 545.95 619.789 552.779 620.675 570.094C611.036 578.12 604.612 565.436 596.993 561.642C555.678 541.071 512.049 595.889 541.591 630.868C548.177 638.665 563.554 639.41 573.61 639.147C582.361 637.673 602.79 628.853 608.504 633.368C606.794 640.931 587.019 648.539 579.844 649.811C529.829 658.68 503.847 613.271 529.593 571.533C538.507 557.083 556.789 550.174 572.52 547.286Z"/><path fill="#015857" fill-opacity="0.98431373" d="M2819.54 575.803C2822.31 575.802 2822.66 575.825 2825.11 577.088L2825.44 579.237C2821.5 589.634 2770.64 663.11 2759.03 676.07C2756.18 679.247 2747.66 683.606 2742.99 682.794C2740.2 682.31 2738.01 682.345 2735.97 680.041C2738.37 670.325 2762.17 670.805 2766.28 648.294C2766.14 635.365 2746.69 586.671 2751.94 578.395C2755.07 576.816 2754.05 577.242 2757.9 577.647C2763.58 588.784 2768.99 618.194 2776.3 632.094C2783.26 630.097 2806.8 583.702 2819.54 575.803Z"/><path fill="#055457" d="M2102.54 566.966C2103.03 569.801 2102.96 585.917 2103.54 586.403L2103.41 585.493C2104.49 586.148 2105.92 586.743 2106.42 587.668C2108.07 586.752 2109.23 585.684 2110.67 584.482C2110.29 587.04 2110.27 587.789 2110.41 590.376C2120.88 595.408 2160.73 588.605 2164.55 595.625C2160.52 612.721 2119.39 597.317 2107.29 605.651C2103.13 608.513 2100.12 632.64 2099.4 637.779C2110.35 638.826 2148.8 637.037 2153.75 640.516C2154.2 643.488 2154.01 644.038 2153.33 646.867C2146.45 651.396 2096.76 649.838 2085.95 649.324C2090.43 620.431 2098.74 593.356 2102.54 566.966Z"/><path fill="#015857" d="M1688.53 575.423C1697.09 574.338 1722.51 576.85 1723.11 587.783C1717.5 592.428 1698.96 582.591 1690.34 585.482C1685.62 587.068 1674.39 589.411 1675.91 596.942C1688.92 612.165 1730.76 606.271 1714.79 641.196C1704.68 648.655 1698.02 651.629 1685.36 652.282C1679.13 651.459 1653.7 645.579 1656.33 636.941C1664.05 633.147 1684.28 646.127 1694.81 641.861C1699.74 639.864 1708.26 638.333 1711.01 633.065C1712.68 620.286 1667.35 612.897 1664.37 599.137C1661.62 586.431 1679.01 578.397 1688.53 575.423Z"/><path fill="#015857" d="M1772.08 574.34C1778.54 574.56 1803.2 579.634 1798 589.5C1784.75 595.883 1778.7 571.315 1750.42 594.645C1766.6 609.703 1773.44 605.323 1790.58 616.352C1793.87 618.822 1796.18 622.557 1796.63 626.573C1798.58 644.001 1778.37 651.069 1764.52 652.23C1754.14 651.287 1741.56 646.714 1734.52 638.838L1734.87 637.377C1743.9 634.801 1759.2 644.072 1768.92 642.693C1777.03 641.544 1786.87 637.532 1785.5 627.657C1780.02 619.346 1757.64 615.534 1749.38 608.218C1730.9 591.834 1756.27 575.994 1772.08 574.34Z"/><path fill="#126464" d="M2254.45 575.74C2255.91 575.985 2257.69 576.545 2259.15 576.959L2259.76 578.35C2259.54 578.871 2259.06 580.029 2258.77 580.488C2244.77 602.527 2228.87 623.325 2214.47 645.124C2211.92 648.986 2204.73 649.096 2200.83 646.979C2198.1 642.818 2189.35 606.382 2186.99 598.186C2183.8 593.757 2181.53 581.341 2187.77 577.105C2201.74 579.671 2200.43 622.373 2209.78 629.219C2221.05 626.049 2233.2 589.685 2254.45 575.74Z"/><path fill="#015857" d="M972.227 581.256C998.936 573.428 989.316 572.028 1013.18 585.209C1032.11 575.349 1043.32 567.649 1059.29 587.224C1059.42 598.863 1053.57 646.414 1042.13 649.005L1039.58 648.279C1033.58 635.873 1072.5 567.004 1019.34 589.99C1017.38 590.837 1014.41 592.78 1012.64 594.086L1011.1 591.756C1003.05 592.415 1004.25 590.363 1001.52 596.475C993.95 581.688 979.613 585.074 967.088 591.626C966.802 591.512 959.766 585.805 959.632 585.036C959.326 583.28 959.308 579.597 959.26 577.626C964.062 576.137 967.61 578.86 972.227 581.256Z"/><path fill="#015857" d="M1516.67 643.289C1524.72 642.662 1538 638.193 1537.03 628.028C1530.55 612.387 1478.99 615.233 1502.27 584.779C1502.48 590.373 1501.61 589.573 1504.42 593.481L1506.87 594.117L1507.65 596.032L1508.08 596.693C1516.47 609.389 1576.18 619.155 1538.27 645.388C1528.6 652.077 1519.08 653.247 1507.82 651.262C1500.97 649.564 1488.71 644.746 1486.46 637.467L1487.49 636.153C1494.47 635.031 1507.24 641.549 1516.67 643.289Z"/><path fill="#126464" d="M1507.82 651.262C1500.97 649.564 1488.71 644.746 1486.46 637.467L1487.49 636.153C1494.47 635.031 1507.24 641.549 1516.67 643.289L1520.48 644.47C1519.73 650.677 1512.47 651.218 1507.82 651.262Z"/><path fill="#015857" d="M724.731 600.87C727.359 597.296 731.213 599.201 733.62 595.308L734.181 596.017C745.557 610.184 778.911 608.774 778.205 630.717C777.696 646.534 751.636 653.679 738.882 650.872C731.365 649.218 713.728 646.247 715.096 635.942C720.851 633.591 773.275 654.625 763.993 626.731C760.805 617.149 728.342 614.246 724.731 600.87Z"/><path fill="#015857" fill-opacity="0.98431373" d="M1423.16 649.892C1418.59 647.238 1415.95 645.259 1410.93 642.755C1404.32 644.183 1402.61 654.312 1395.05 649.942C1393.83 639.076 1413 557.124 1419.27 549.667C1422.67 548.309 1423.92 548.581 1427.61 548.863C1429.66 553.579 1421.52 574.45 1419.38 580.651L1416.99 581.155L1416.08 584.83C1414.47 583.443 1415.25 582.369 1413.63 580.07C1413.19 580.347 1412.74 589.67 1412.4 591.416L1413.5 592.455C1417.46 591.672 1418.75 591.566 1422.8 591.527C1412.5 599.046 1412.3 611.399 1409.13 622.865C1405.12 637.372 1425.16 640.999 1435.63 642.122C1432.18 643.228 1425.27 644.272 1423.51 645.69L1423.16 649.892Z"/><path fill="#126464" fill-opacity="0.98823529" d="M681.694 633.505C684.547 623.496 693.895 577.699 702.767 576.198C707.256 580.474 703.904 594.772 701.778 599.953C695.54 615.154 695.144 637.649 688.028 651.318C683.322 647.415 681.051 644.582 674.946 645.626C661.281 647.964 649.907 656.431 635.994 646.542C640.594 639.323 644.111 648.843 650.318 640.645C661.375 642.495 672.116 638.921 681.694 633.505Z"/><path fill="#015857" d="M2105.15 548.356C2114.69 548.2 2172.59 547.256 2176.73 549.649C2176.24 552.434 2176.06 555.087 2174.23 557.233C2166.74 560.065 2131.23 558.307 2119.99 558.925C2117.12 567.109 2114.03 576.595 2110.67 584.482C2109.23 585.684 2108.07 586.752 2106.42 587.668C2105.92 586.743 2104.49 586.148 2103.41 585.493L2103.54 586.403C2102.96 585.917 2103.03 569.801 2102.54 566.966C2104.42 562.163 2104.8 553.742 2105.15 548.356Z"/><path fill="#126464" d="M810.068 600.884C810.384 597.923 811.627 592.878 809.369 590.897C804.172 586.337 798.262 582.711 804.935 575.59C809.071 574.284 813.373 573.854 815.94 571.303C816.5 566.85 816.663 562.398 819.062 558.639C822.717 556.11 824.104 556.109 828.297 557.709C830.158 562.038 825.496 568.381 823.252 572.418C828.079 573.58 832.227 574.467 836.869 576.335C839.43 580.049 840.529 580.326 840.646 584.287C836.928 587.272 825.266 586.545 824.009 589.807C820.835 598.049 818.889 607.958 816.383 616.631C814.919 616.882 812.423 618.017 810.954 618.62C809.366 616.743 810.373 604.526 810.068 600.884Z"/><path fill="#126464" fill-opacity="0.97254902" d="M633.317 644.978C631.574 642.551 627.442 636.055 628.253 633.014C632.988 615.239 637.917 597.601 641.854 579.609C642.174 578.148 644.287 576.444 645.431 575.54C658.384 576.629 641.419 621.713 640.724 631.92L640.696 632.375L636.721 630.413C631.44 633.038 633.265 639.226 633.317 644.978Z"/><path fill="#126464" d="M724.731 600.87C714.073 571.107 781.172 567.484 782.109 589.13C776.826 591.996 743.026 575.995 733.62 595.308C731.213 599.201 727.359 597.296 724.731 600.87Z"/><path fill="#126464" fill-opacity="0.96862745" d="M967.088 591.626C954.495 603.769 957.39 651.018 943.004 649.101C939.815 644.526 954.984 585.158 959.26 577.626C959.308 579.597 959.326 583.28 959.632 585.036C959.766 585.805 966.802 591.512 967.088 591.626Z"/><path fill="#015857" fill-opacity="0.98431373" d="M1184.16 585.812C1184.23 589.301 1184.2 592.733 1184.77 596.18C1187.84 597.778 1188.04 596.875 1192.43 595.783C1190.83 605.475 1182.22 645.917 1173.85 649.356C1170.84 649.035 1170.66 649.479 1168.41 647.824C1169.3 640.554 1181.36 592.544 1184.16 585.812Z"/><path fill="#126464" fill-opacity="0.98431373" d="M1001.52 596.475C1004.25 590.363 1003.05 592.415 1011.1 591.756L1012.64 594.086C1007.16 604.346 1003.06 643.615 995.645 648.763C992.705 648.885 992.039 649.025 989.519 647.379C988.691 644.057 999.484 602.157 1001.52 596.475Z"/><path fill="#126464" d="M1502.27 584.779C1519.61 570.675 1530.29 571.715 1549.72 581.642C1552.01 585.501 1553.02 585.649 1552.65 589.253C1544.77 593.481 1516.07 573.997 1507.65 596.032L1506.87 594.117L1504.42 593.481C1501.61 589.573 1502.48 590.373 1502.27 584.779Z"/><path fill="#015857" fill-opacity="0.98823529" d="M1471.73 587.284C1481.43 608.633 1473.71 627.379 1457.58 643.108L1456.66 639.063C1455.11 638.258 1448.23 639.279 1444.89 639.222C1458.85 629.795 1465.4 616.555 1463.42 599.802C1466.02 600.155 1468.04 600.831 1470.53 601.57L1471.95 600.195C1471.38 595.229 1471.54 592.202 1471.73 587.284Z"/><path fill="#055457" d="M1430.09 578.153C1445.61 573.716 1461.71 571.729 1471.73 587.284C1471.54 592.202 1471.38 595.229 1471.95 600.195L1470.53 601.57C1468.04 600.831 1466.02 600.155 1463.42 599.802C1459.01 592.924 1457.88 590.891 1450.39 587.102L1443.48 586.114C1441.49 584.139 1440.62 583.491 1439.6 580.786C1436.6 579.799 1433.18 578.969 1430.09 578.153Z"/><path fill="#126464" d="M1439.6 580.786C1444.23 579.54 1450.96 581.008 1453.03 585.597L1450.39 587.102L1443.48 586.114C1441.49 584.139 1440.62 583.491 1439.6 580.786Z"/><path fill="#015857" d="M810.068 600.884C810.373 604.526 809.366 616.743 810.954 618.62C812.423 618.017 814.919 616.882 816.383 616.631C812.279 639.064 807.34 631.864 829.646 646.45L829.097 647.613C790.632 664.89 805.366 618.38 810.068 600.884Z"/><path fill="#055457" d="M1184.16 585.812C1185.08 580.684 1184.5 580.166 1187.75 576.481C1192.88 575.666 1193.53 579.507 1200.28 580.371C1210.45 581.673 1214.09 573.348 1222.53 577.589L1223.39 579.379C1218.49 591.438 1196.14 584.731 1192.43 595.783C1188.04 596.875 1187.84 597.778 1184.77 596.18C1184.2 592.733 1184.23 589.301 1184.16 585.812Z"/><path fill="#126464" fill-opacity="0.84705883" d="M2007.5 637.242C2010.69 637.378 2012.52 637.26 2015.43 638.587C2023.25 647.14 2010.67 669.093 1997.32 668.769C1996.89 664.423 2005.69 656.372 2009.6 651.209C2004.81 649.434 1994.3 646.939 1997.68 640.376C2000.43 638.114 2003.98 637.85 2007.5 637.242Z"/><path fill="#015857" d="M1444.89 639.222C1448.23 639.279 1455.11 638.258 1456.66 639.063L1457.58 643.108C1446.92 651.16 1436.17 653.942 1423.16 649.892L1423.51 645.69C1425.27 644.272 1432.18 643.228 1435.63 642.122L1444.89 639.222Z"/><path fill="#126464" d="M1419.38 580.651L1430.09 578.153C1433.18 578.969 1436.6 579.799 1439.6 580.786C1440.62 583.491 1441.49 584.139 1443.48 586.114C1434.82 587.045 1430.77 587.402 1422.8 591.527C1418.75 591.566 1417.46 591.672 1413.5 592.455L1412.4 591.416C1412.74 589.67 1413.19 580.347 1413.63 580.07C1415.25 582.369 1414.47 583.443 1416.08 584.83L1416.99 581.155L1419.38 580.651Z"/><path fill="#055457" d="M633.317 644.978C633.265 639.226 631.44 633.038 636.721 630.413L640.696 632.375C644.172 636.835 645.692 637.693 650.318 640.645C644.111 648.843 640.594 639.323 635.994 646.542L633.317 644.978Z"/></svg>
